# xmcd
#
# Track frame offsets:
#	150
#	12389
#	26089
#	37603
#	49044
#	63916
#	74242
#	86406
#	99464
#	110455
#	121477
#	134190
#	149965
#	163932
#	176220
#
# Disc length: 2588
#
# Revision: 3
# Processed by: cddbd v1.5.1PL0 Copyright (c) Steve Scherf et al.
# Submitted via: audiograbber 1.80.04
# Normalized: r1:DSETVAR1,TDELIM( - ),TSWAP
#
DISCID=e40a1a0f
DTITLE=Various Artist - Classic Country, 1965 - 1969, CD-2
DYEAR=1900
DGENRE=Country Classic
TTITLE0=Tammy Wynette - Stand By Your Man
TTITLE1=David Houston - Almost Persuaded
TTITLE2=Buck Owens - Cryin' Time
TTITLE3=Sonny James - Take Good Care Of Her
TTITLE4=Marty Robbins - I Walk Alone
TTITLE5=Jim Reeves - Is It Really Over?
TTITLE6=Jack Greene - There Goes My Everything
TTITLE7=Conway Twitty - Next In Line
TTITLE8=Porter Wagner and Dolly Parton - Just Someone I Used To Know
TTITLE9=Porter Wagner - Green, Green Grass Of Home
TTITLE10=Jim Reeves - Blue Side Of Lonesome
TTITLE11=Elvis Presley - Suspicious Minds
TTITLE12=Charley Pride - All I Have To Offer You (Is Me)
TTITLE13=Glen Cambell - Galveston
TTITLE14=Bobby Goldsboro - Honey
EXTD=
EXTT0=
EXTT1=
EXTT2=
EXTT3=
EXTT4=
EXTT5=
EXTT6=
EXTT7=
EXTT8=
EXTT9=
EXTT10=
EXTT11=
EXTT12=
EXTT13=
EXTT14=
PLAYORDER=
